<?xml version="1.0" encoding="iso-8859-1"?>
<!-- Generator: Adobe Illustrator 16.0.0, SVG Export Plug-In . SVG Version: 6.00 Build 0)  -->
<!DOCTYPE svg PUBLIC "-//W3C//DTD SVG 1.1//EN" "http://www.w3.org/Graphics/SVG/1.1/DTD/svg11.dtd">
<svg version="1.1" id="Capa_1" xmlns="http://www.w3.org/2000/svg" xmlns:xlink="http://www.w3.org/1999/xlink" x="0px" y="0px"
	 width="92.96px" height="92.96px" viewBox="0 0 92.96 92.96" style="enable-background:new 0 0 92.96 92.96;" xml:space="preserve"
	>
<g>
	<path d="M79.075,49.863c-4.63,1.557-8.454,0.78-10.534-2.219c-2.609-3.765-1.871-7.518,0.857-10.687
		c4.053-4.705,8.4-9.166,12.765-13.592c2.774-2.812,7.883-7.396,10.797-10.07l-30.821,8.229c-4.392,1.022-7.962-1.082-9.8-5.004
		c-1.627-3.474-0.696-7.629,2.183-10.442c0.764-0.748,1.875-1.229,2.74-2.159c-8.13-4.586-15.367-5.157-23.167-0.349
		c0.561,0.705,0.893,1.141,1.243,1.562c3.859,4.627,4.745,8.411,2.475,12.039c-2.655,4.244-5.864,5.247-12.356,3.712
		c-4.837-1.143-9.646-2.397-14.465-3.614C7.325,16.341,3.664,15.397,0,14.46l20.127,21.096c2.696,2.834,2.627,6.307,0.868,9.635
		c-1.867,3.528-4.942,5.131-8.931,4.699c-1.737-0.188-3.444-0.639-5.19-0.977c-0.357,8.475,4.44,16.577,12.154,20.419
		c0.314-1.218,0.558-2.15,0.796-3.086c1.758-6.91,7.044-9.39,13.063-5.542c2.333,1.491,4.447,4.259,5.338,6.893
		c2.718,8.024,4.792,16.267,7.322,25.148c0.525-1.767,0.852-2.799,1.14-3.844c2.202-7.979,4.304-15.989,6.631-23.933
		c1.117-3.811,3.863-6.009,7.92-6.177c4.353-0.182,7.41,1.853,9.119,5.84c0.594,1.386,1.021,3.051,1.526,4.486
		c7.179-3.438,12.739-13.352,11.866-20.946C82.172,48.747,80.635,49.338,79.075,49.863z M45.654,61.001
		c-4.196-12.426-8.568-21.362-18.898-30.569c12.457,0,24.227,0,36.738,0C54.21,40.013,48.889,48.256,45.654,61.001z"/>
</g>
<g>
</g>
<g>
</g>
<g>
</g>
<g>
</g>
<g>
</g>
<g>
</g>
<g>
</g>
<g>
</g>
<g>
</g>
<g>
</g>
<g>
</g>
<g>
</g>
<g>
</g>
<g>
</g>
<g>
</g>
</svg>
